Coordinates
version=1
nRows=26
nColumns=24
inDegrees=yes

Units are S.I. units (second, meters, Newtons, ...)
Angles are in degrees.

endheader
time	pelvis_tilt	pelvis_list	pelvis_rotation	pelvis_tx	pelvis_ty	pelvis_tz	hip_flexion_r	hip_adduction_r	hip_rotation_r	knee_angle_r	ankle_angle_r	subtalar_angle_r	mtp_angle_r	hip_flexion_l	hip_adduction_l	hip_rotation_l	knee_angle_l	ankle_angle_l	subtalar_angle_l	mtp_angle_l	lumbar_extension	lumbar_bending	lumbar_rotation
      0.45800000	     -9.63292891	     -0.44634721	     -0.95262130	     -0.70829446	      1.03588374	      0.30059861	     35.25294220	      1.23518703	     -4.34042172	    -15.87735463	     10.07422804	      0.06054131	      8.23589681	     -3.96463078	     -0.74520346	     -2.73316910	    -10.99735300	     20.73307477	      8.68026513	      6.38429262	     -3.69836058	      0.85104975	     -2.84355436
      0.46216667	     -9.60786960	     -0.39598207	     -0.86716303	     -0.70229640	      1.03468471	      0.30088973	     35.25259869	      1.19444528	     -3.99600933	    -15.75892368	      9.94381973	     -0.18658218	      8.22610487	     -4.04856661	     -0.75027910	     -2.74068541	    -11.63815743	     20.91337997	      8.92686250	      6.43303062	     -3.69935249	      0.84044113	     -2.86378854
      0.46633333	     -9.56477000	     -0.36364903	     -0.78899951	     -0.69624864	      1.03352711	      0.30119117	     35.24230147	      1.17147590	     -3.69155737	    -15.76096378	      9.80682889	     -0.39425480	      8.21692067	     -4.10823915	     -0.78658959	     -2.83783687	    -12.38354187	     21.11911441	      9.27677857	      6.53684677	     -3.70651697	      0.85306691	     -2.86886231
      0.47050000	     -9.48617205	     -0.33991139	     -0.70715725	     -0.69017461	      1.03246837	      0.30147732	     35.20011481	      1.15428539	     -3.40161212	    -15.87429354	      9.65988119	     -0.64111797	      8.20932119	     -4.18402515	     -0.83506675	     -2.92053895	    -13.17285536	     21.29006592	      9.63066223	      6.68153465	     -3.76133190	      0.87814005	     -2.87297983
      0.47466667	     -9.42616317	     -0.31994551	     -0.62062167	     -0.68406554	      1.03140228	      0.30176202	     35.18930547	      1.13837631	     -3.14172845	    -16.10528039	      9.49854848	     -0.89370352	      8.20243533	     -4.20185059	     -0.89484513	     -3.00612231	    -14.04559490	     21.44393803	      9.99441046	      6.86996341	     -3.78365680	      0.91235472	     -2.87331753
      0.47883333	     -9.31890203	     -0.31765895	     -0.53958640	     -0.67792673	      1.03044853	      0.30205426	     35.13029543	      1.14287534	     -2.90074332	    -16.42934239	      9.31442125	     -1.16922214	      8.19623243	     -4.24433140	     -0.98065742	     -3.12123660	    -14.97526736	     21.57016468	     10.39704933	      7.10821292	     -3.86456221	      0.97417894	     -2.86929158
      0.48300000	     -9.20466226	     -0.32614806	     -0.45754692	     -0.67175356	      1.02954044	      0.30235112	     35.07156068	      1.15669684	     -2.69368973	    -16.85243601	      9.11477832	     -1.44925527	      8.19031947	     -4.26041332	     -1.08640737	     -3.24770307	    -15.97692806	     21.66347148	     10.80660277	      7.39918039	     -3.94675452	      1.05048513	     -2.86112333
      0.48716667	     -9.09600345	     -0.33709740	     -0.37985453	     -0.66554848	      1.02864584	      0.30267069	     35.02720394	      1.17773826	     -2.50080467	    -17.36774006	      8.89732203	     -1.74608427	      8.18390724	     -4.23700387	     -1.20386109	     -3.39786575	    -17.04982228	     21.71728939	     11.24195887	      7.75780761	     -4.01391108	      1.13664774	     -2.84729419
      0.49133333	     -8.95465359	     -0.36084322	     -0.30213604	     -0.65931650	      1.02783976	      0.30299436	     34.95104503	      1.21052052	     -2.34154491	    -17.95881894	      8.67328718	     -2.03552535	      8.17550359	     -4.21740237	     -1.34358039	     -3.56242007	    -18.18610234	     21.72992325	     11.68679377	      8.17515327	     -4.11961369	      1.23805091	     -2.82678285
      0.49550000	     -8.82725859	     -0.38303261	     -0.22839670	     -0.65307536	      1.02702794	      0.30335082	     34.89967837	      1.24664745	     -2.19599720	    -18.62728321	      8.44276411	     -2.33036352	      8.16314697	     -4.14529817	     -1.49160602	     -3.73586760	    -19.39664699	     21.69123505	     12.14364442	      8.67582185	     -4.20207297	      1.34495029	     -2.80465653
      0.49966667	     -8.65053829	     -0.40113397	     -0.15319896	     -0.64682265	      1.02634739	      0.30369367	     34.80701741	      1.27218651	     -2.10265508	    -19.37350778	      8.24479897	     -2.56776781	      8.06586605	     -4.10899461	     -1.63218610	     -3.85199932	    -20.62143309	     21.47663658	     12.44366653	     13.14407475	     -4.34488040	      1.43355359	     -2.73502374
      0.50383333	     -8.47673314	     -0.44695139	     -0.07725355	     -0.64054985	      1.02569476	      0.30406728	     34.70284066	      1.33064577	     -2.00512876	    -20.13039732	      7.99522898	     -2.87051509	      8.05285996	     -4.01864798	     -1.82153578	     -4.02484447	    -21.95863952	     21.33596823	     12.86990707	     13.23933782	     -4.47986212	      1.57629822	     -2.75061367
      0.50800000	     -8.30244751	     -0.49286031	     -0.00678537	     -0.63426927	      1.02506459	      0.30447223	     34.60562736	      1.39222855	     -1.92961790	    -20.93969216	      7.77969421	     -3.14561348	      8.03304208	     -3.89215926	     -2.02282159	     -4.21662864	    -23.36561070	     21.12787337	     13.31150073	     13.41386448	     -4.60926016	      1.70843093	     -2.71111685
      0.51216667	     -8.11860610	     -0.54487360	      0.06292863	     -0.62798924	      1.02448938	      0.30489946	     34.49496981	      1.46186218	     -1.86646692	    -21.77103020	      7.57637550	     -3.41437455	      8.00478382	     -3.73935400	     -2.24105942	     -4.41150338	    -24.83369661	     20.85046315	     13.74129394	     13.65685542	     -4.75076077	      1.84627317	     -2.67401090
      0.51633333	     -7.88003030	     -0.62249482	      0.13184304	     -0.62171900	      1.02407300	      0.30535969	     34.29965052	      1.56911827	     -1.77092398	    -22.56793807	      7.30899538	     -3.83576440	      7.68336090	     -3.61952030	     -2.49270655	     -4.57908527	    -26.33207319	     20.42360913	     14.05760738	     16.53303657	     -4.97086007	      2.00873197	     -2.58582293
      0.52050000	     -7.72170801	     -0.66287650	      0.19561392	     -0.61542720	      1.02349404	      0.30579790	     34.23598048	      1.61712294	     -1.80097354	    -23.49049996	      7.26935494	     -3.87828091	      7.66787325	     -3.37052692	     -2.71309277	     -4.77190219	    -27.91469715	     19.99879266	     14.44814828	     16.66705190	     -5.06113622	      2.15067539	     -2.58022192
      0.52466667	     -7.52622880	     -0.72869778	      0.25970462	     -0.60917600	      1.02303508	      0.30629242	     34.09844590	      1.71049054	     -1.75692354	    -24.34896011	      7.15000313	     -4.16261347	      7.27477723	     -3.12791492	     -2.97113341	     -4.94344452	    -29.54031014	     19.45067274	     14.75161365	     19.33774865	     -5.21587644	      2.30899587	     -2.50605798
      0.52883333	     -7.31990779	     -0.80023987	      0.32308412	     -0.60292209	      1.02263690	      0.30677973	     33.94220662	      1.80177076	     -1.76470584	    -25.20536455	      7.09441522	     -4.30267798	      7.26056813	     -2.86513668	     -3.24252315	     -5.11508985	    -31.21599101	     18.86243516	     15.05844834	     19.40941336	     -5.37886368	      2.47866311	     -2.48010704
      0.53300000	     -7.12016516	     -0.88360046	      0.38517699	     -0.59669197	      1.02226647	      0.30728670	     33.77580027	      1.91173113	     -1.76191532	    -26.03393264	      7.06249561	     -4.49372395	      7.23279368	     -2.56225957	     -3.53200653	     -5.26851876	    -32.94216581	     18.22415699	     15.30982284	     19.54054964	     -5.53279823	      2.65939128	     -2.42518376
      0.53716667	     -6.94996561	     -0.96162562	      0.44864542	     -0.59047594	      1.02188697	      0.30780490	     33.62994233	      2.01545557	     -1.76894280	    -26.84669345	      7.08240658	     -4.65726564	      7.19234004	     -2.19637630	     -3.81987913	     -5.39804313	    -34.70263044	     17.50528012	     15.50223754	     19.72696982	     -5.64810497	      2.83400505	     -2.37016033
      0.54133333	     -6.73486430	     -1.06432149	      0.51650247	     -0.58429762	      1.02164374	      0.30831238	     33.40640623	      2.14862194	     -1.76831374	    -27.60577792	      7.14257663	     -4.88355898	      6.48777987	     -1.85372203	     -4.13194749	     -5.48505312	    -36.47788432	     16.67424082	     15.55173164	     22.75238775	     -5.83533126	      3.04672275	     -2.29738526
      0.54550000	     -6.56401931	     -1.13521527	      0.57043788	     -0.57814692	      1.02134928	      0.30883575	     33.23594665	      2.24578108	     -1.80224509	    -28.37929574	      7.30114516	     -4.91517631	      6.47785310	     -1.43815491	     -4.41163545	     -5.58029861	    -38.28455279	     15.82704313	     15.63376868	     22.79044607	     -5.95566021	      3.20593769	     -2.24661320
      0.54966667	     -6.38907344	     -1.22620180	      0.63404191	     -0.57202898	      1.02112621	      0.30934231	     33.02678967	      2.36415568	     -1.83004753	    -29.08490103	      7.48745503	     -5.01058993	      6.46428457	     -1.00187388	     -4.70687572	     -5.62065335	    -40.10882017	     14.94862035	     15.60541226	     22.82689105	     -6.08915911	      3.39444250	     -2.18039472
      0.55383333	     -6.23976610	     -1.32495576	      0.69277148	     -0.56593537	      1.02089469	      0.30985509	     32.82857445	      2.48944183	     -1.87873271	    -29.75852243	      7.70582840	     -5.08955021	      6.43676852	     -0.51225484	     -5.01663481	     -5.67255362	    -41.95777382	     14.06642436	     15.54251759	     22.88505788	     -6.18552935	      3.59224118	     -2.11226387
      0.55800000	     -6.05826341	     -1.41127736	      0.74946183	     -0.55990190	      1.02078221	      0.31035145	     32.57693954	      2.60472885	     -1.92052917	    -30.39534788	      7.99111524	     -5.18438397	      6.42448371	     -0.04130422	     -5.30424068	     -5.69671494	    -43.79264620	     13.14139962	     15.40940098	     22.90425502	     -6.33022290	      3.77788015	     -2.04395980
      0.56216667	     -5.94708702	     -1.53438450	      0.81627337	     -0.55386509	      1.02062257	      0.31081982	     32.36443118	      2.74759731	     -1.99006023	    -30.95913646	      8.28453396	     -5.19984363	      6.38105788	      0.52992394	     -5.62453584	     -5.67680778	    -45.64660310	     12.24689186	     15.17953682	     22.95042204	     -6.38270488	      4.00484833	     -1.96440975
